<svg width="21" height="21" viewBox="0 0 21 21" fill="none" xmlns="http://www.w3.org/2000/svg">
<path d="M10.5001 14.2012L16.0913 5.24998L4.90881 5.24998L10.5001 14.2012Z" fill="#B62117"/>
<path d="M9.652 16.1432C10.0437 16.7699 10.9563 16.7699 11.348 16.1432L18.2938 5.03C18.71 4.36395 18.2312 3.5 17.4458 3.5L3.55425 3.5C2.76881 3.5 2.28997 4.36395 2.70625 5.03L9.652 16.1432ZM11.3481 12.8434C10.9565 13.4704 10.0435 13.4704 9.65186 12.8434L5.8643 6.77977C5.44826 6.11372 5.92712 5.25 6.71244 5.25L14.2876 5.25C15.0729 5.25 15.5517 6.11372 15.1357 6.77978L11.3481 12.8434Z" fill="#B62117"/>
</svg>
