<svg width="156" height="37" viewBox="0 0 156 37" fill="none" xmlns="http://www.w3.org/2000/svg">
<path d="M48.2009 25.2101C48.6027 22.9551 49.4732 20.9408 50.8125 19.1674C52.1741 17.3721 53.8371 15.9819 55.8013 14.9966C57.7879 13.9895 59.8973 13.486 62.1295 13.486C64.7411 13.486 66.9174 14.1428 68.6585 15.4564C70.3995 16.77 71.4487 18.5872 71.8058 20.908H66.4152C66.058 19.8571 65.4442 19.0689 64.5737 18.5434C63.7031 17.9961 62.6317 17.7224 61.3594 17.7224C59.9978 17.7224 58.7254 18.0289 57.5424 18.642C56.3817 19.255 55.3995 20.1308 54.596 21.2692C53.8147 22.4077 53.2902 23.7213 53.0223 25.2101C52.9107 25.9107 52.8549 26.4909 52.8549 26.9507C52.8549 28.7241 53.3683 30.1253 54.3951 31.1543C55.4442 32.1833 56.8616 32.6978 58.6473 32.6978C59.9196 32.6978 61.0915 32.4242 62.1629 31.8768C63.2344 31.3295 64.1384 30.5303 64.875 29.4794H70.2656C69.0603 31.8221 67.3527 33.6502 65.1429 34.9639C62.9554 36.2556 60.5558 36.9015 57.9442 36.9015C55.9799 36.9015 54.2388 36.5183 52.721 35.752C51.2254 34.9639 50.0647 33.8582 49.2388 32.4351C48.4129 31.012 48 29.3809 48 27.5418C48 26.7755 48.067 25.9983 48.2009 25.2101Z" fill="white"/>
<path d="M88.064 32.3366H78.7225L76.4122 36.7044H71.4903L84.0461 13.7487H89.5037L93.7559 36.7044H88.8006L88.064 32.3366ZM87.4613 28.7569L85.7872 19.0361L80.6309 28.7569H87.4613Z" fill="white"/>
<path d="M109.821 13.7815C112.21 13.7815 114.018 14.3179 115.245 15.3907C116.473 16.4416 117.087 17.8209 117.087 19.5287C117.087 19.9447 117.053 20.3716 116.987 20.8095C116.719 22.2982 116.027 23.6557 114.911 24.8817C113.817 26.0859 112.344 26.9288 110.491 27.4105L114.408 36.7044H108.951L105.469 27.7717H103.225L101.618 36.7044H96.8972L101.049 13.7815H109.821ZM112.165 20.908C112.21 20.5139 112.232 20.2512 112.232 20.1198C112.232 19.2878 111.964 18.642 111.428 18.1822C110.893 17.7224 110.078 17.4925 108.984 17.4925H105.067L103.828 24.3563H107.745C108.995 24.3563 109.989 24.0498 110.725 23.4367C111.484 22.8237 111.964 21.9808 112.165 20.908Z" fill="white"/>
<path d="M138.67 19.6929C138.447 21.0284 137.889 22.145 136.996 23.0426C136.126 23.9184 135.054 24.5533 133.782 24.9474C134.853 25.1663 135.713 25.6918 136.36 26.5238C137.03 27.3557 137.365 28.341 137.365 29.4794C137.365 29.7859 137.331 30.1253 137.264 30.4975C136.952 32.3585 135.992 33.8582 134.385 34.9967C132.8 36.1352 130.813 36.7044 128.425 36.7044H118.347L122.499 13.7815H132.141C134.262 13.7815 135.891 14.2194 137.03 15.0952C138.19 15.9709 138.771 17.1422 138.771 18.6091C138.771 18.9594 138.737 19.3207 138.67 19.6929ZM133.782 20.3825C133.804 20.2512 133.815 20.0541 133.815 19.7914C133.815 19.0251 133.559 18.434 133.045 18.018C132.532 17.602 131.784 17.394 130.802 17.394H126.55L125.478 23.3054H129.764C130.858 23.3054 131.762 23.0536 132.476 22.55C133.19 22.0246 133.626 21.3021 133.782 20.3825ZM132.61 29.9392C132.655 29.6327 132.677 29.4138 132.677 29.2824C132.677 28.4942 132.387 27.8812 131.807 27.4433C131.249 26.9835 130.467 26.7536 129.463 26.7536H124.842L123.737 33.0591H128.458C129.597 33.0591 130.534 32.7854 131.271 32.2381C132.007 31.6907 132.454 30.9244 132.61 29.9392Z" fill="white"/>
<path d="M147.127 37C145.766 37 144.527 36.781 143.411 36.3432C142.317 35.8834 141.446 35.2594 140.799 34.4712C140.174 33.6612 139.862 32.7416 139.862 31.7126C139.862 31.5594 139.884 31.3076 139.929 30.9573H144.482C144.415 31.7236 144.65 32.3475 145.185 32.8292C145.721 33.289 146.48 33.5189 147.462 33.5189C148.355 33.5189 149.092 33.3656 149.672 33.0591C150.275 32.7307 155.475 26.6261 155.967 26.1625C155.967 26.1625 150.297 30.6617 149.739 30.3333C149.203 30.0049 148.344 29.6327 147.161 29.2167C145.978 28.8007 144.996 28.3957 144.214 28.0016C143.433 27.6075 142.763 27.0602 142.205 26.3596C141.647 25.659 141.368 24.7723 141.368 23.6995C141.368 22.6267 141.681 21.6743 142.306 20.8423C142.953 20.0103 143.846 19.3645 144.984 18.9047C146.123 18.4449 147.429 18.215 148.902 18.215C150.308 18.215 151.547 18.4449 152.618 18.9047C153.69 19.3645 154.516 20.0103 155.096 20.8423C155.699 21.6524 156 22.5829 156 23.6338C156 23.8965 155.989 24.0935 155.967 24.2249H151.614C151.681 23.4586 151.458 22.8456 150.944 22.3858C150.431 21.926 149.683 21.6962 148.701 21.6962C147.897 21.6962 147.239 21.8713 146.725 22.2216C146.212 22.55 145.955 22.9988 145.955 23.5681C145.955 24.1373 146.246 24.608 146.826 24.9802C147.406 25.3305 148.299 25.7246 149.504 26.1625C150.71 26.6223 151.67 27.0492 152.384 27.4433C153.121 27.8155 153.757 28.341 154.292 29.0197C154.828 29.6765 155.096 30.5084 155.096 31.5156C155.096 32.6322 154.75 33.6064 154.058 34.4384C153.366 35.2704 152.417 35.9053 151.212 36.3432C150.007 36.781 148.645 37 147.127 37Z" fill="white"/>
<path d="M36 18.8348C36 23.6219 34.1036 28.2131 30.7279 31.598C27.3523 34.9831 22.7739 36.8848 18 36.8848C13.2261 36.8848 8.64775 34.9831 5.27209 31.598C1.89643 28.2131 9.82636e-06 23.6219 0 18.8348H5.99566C5.99567 22.0274 7.26042 25.0892 9.51167 27.3467C11.7629 29.6042 14.8163 30.8724 18 30.8724C21.1838 30.8724 24.2371 29.6042 26.4883 27.3467C28.7396 25.0892 30.0043 22.0274 30.0043 18.8348H36Z" fill="#F2F3F7"/>
<path d="M17.1244 4.74495C16.9198 5.29181 16.4872 6.38126 15.5701 8.40456C15.3931 8.79508 15.1658 9.2711 14.9134 9.79962C13.8583 12.0094 12.3648 15.1372 12.276 16.7712C12.2453 17.3361 12.2887 17.6547 12.346 18.076C12.3698 18.2504 12.3959 18.4424 12.4202 18.6767C12.5243 19.6807 12.8812 20.6112 13.4299 21.478C13.8615 22.16 14.7581 23.0533 15.1157 23.4095C15.2127 23.5061 15.27 23.5632 15.2676 23.5659C15.1935 23.6458 14.2061 22.9239 13.7299 22.4418C12.6352 21.3333 11.9703 19.8865 11.7272 18.0839C11.42 15.8067 12.0035 14.097 14.865 8.88848C15.5468 7.64752 16.4054 6.00925 16.776 5.24165C16.974 4.83185 17.1416 4.49659 17.1488 4.49659C17.1488 4.49659 17.1557 4.48832 17.1636 4.47705C17.203 4.42063 17.2947 4.28915 17.1244 4.74495Z" fill="#F2F3F7"/>
<path fill-rule="evenodd" clip-rule="evenodd" d="M17.5838 0.509778C16.2227 2.36503 14.4268 5.08899 13.3872 6.87539C10.9457 11.0706 9.65772 14.2829 9.41937 16.7711C9.32164 17.7913 9.48309 19.2315 9.81637 20.3125C10.2499 21.7187 10.9394 22.9214 11.9161 23.9752C13.2484 25.4128 14.8655 26.2946 16.7642 26.6187C17.264 26.7039 18.7358 26.7039 19.2356 26.6187C21.1343 26.2946 22.7513 25.4128 24.0837 23.9752C25.5817 22.3589 26.406 20.4098 26.5836 18.0644C26.6461 17.2379 26.5932 16.5198 26.4006 15.5807C25.865 12.9689 24.1516 9.26458 21.6073 5.21845C20.4142 3.3209 18.1185 0 17.9998 0C17.9766 0 17.7894 0.229376 17.5838 0.509778ZM15.5701 8.40442C16.4872 6.38112 16.9198 5.29167 17.1244 4.74481C17.2947 4.289 17.203 4.42049 17.1635 4.47691C17.1557 4.48818 17.1488 4.49645 17.1488 4.49645C17.1416 4.49645 16.974 4.83171 16.776 5.24151C16.4053 6.0091 15.5468 7.64738 14.865 8.88834C12.0034 14.0969 11.42 15.8066 11.7271 18.0837C11.9703 19.8864 12.6352 21.3332 13.7299 22.4416C14.2061 22.9238 15.1935 23.6456 15.2676 23.5657C15.27 23.5631 15.2126 23.5059 15.1156 23.4094C14.7581 23.0531 13.8615 22.1599 13.4298 21.4779C12.8811 20.611 12.5243 19.6806 12.4202 18.6765C12.3959 18.4422 12.3698 18.2503 12.346 18.0759C12.2886 17.6546 12.2452 17.336 12.2759 16.7711C12.3647 15.137 13.8582 12.0093 14.9134 9.79947C15.1658 9.27096 15.3931 8.79494 15.5701 8.40442Z" fill="url(#paint0_linear_34_128)"/>
<defs>
<linearGradient id="paint0_linear_34_128" x1="17.9998" y1="0" x2="26.6452" y2="15.6754" gradientUnits="userSpaceOnUse">
<stop stop-color="#E01410"/>
<stop offset="1" stop-color="#AE1E1B"/>
</linearGradient>
</defs>
</svg>
