<svg width="18" height="24" viewBox="0 0 18 24" fill="none" xmlns="http://www.w3.org/2000/svg">
<path d="M3.20312 2.75781C4.80729 1.15365 6.73958 0.351562 9 0.351562C11.2604 0.351562 13.1745 1.15365 14.7422 2.75781C16.3464 4.32552 17.1484 6.23958 17.1484 8.5C17.1484 11.2344 15.9818 13.4583 13.6484 15.1719V17.8516C13.6484 18.1797 13.5391 18.4531 13.3203 18.6719C13.1016 18.8906 12.8281 19 12.5 19H5.5C5.17188 19 4.89844 18.8906 4.67969 18.6719C4.46094 18.4531 4.35156 18.1797 4.35156 17.8516V15.1719C2.01823 13.5677 0.851562 11.3438 0.851562 8.5C0.851562 6.23958 1.63542 4.32552 3.20312 2.75781ZM5.5 22.5V21.3516H12.5V22.5C12.5 22.8281 12.3906 23.1016 12.1719 23.3203C11.9531 23.5391 11.6797 23.6484 11.3516 23.6484H6.64844C6.32031 23.6484 6.04688 23.5391 5.82812 23.3203C5.60938 23.1016 5.5 22.8281 5.5 22.5Z" fill="#F2F3F7"/>
</svg>
