<svg width="20" height="20" viewBox="0 0 20 20" fill="none" xmlns="http://www.w3.org/2000/svg">
<path d="M3.82031 13.6641C5.97135 12.7891 8.03125 12.3516 10 12.3516C11.9688 12.3516 14.0104 12.7891 16.125 13.6641C18.276 14.5026 19.3516 15.6146 19.3516 17V19.3516H0.648438V17C0.648438 15.6146 1.70573 14.5026 3.82031 13.6641ZM13.2812 8.63281C12.3698 9.54427 11.276 10 10 10C8.72396 10 7.63021 9.54427 6.71875 8.63281C5.80729 7.72135 5.35156 6.6276 5.35156 5.35156C5.35156 4.07552 5.80729 2.98177 6.71875 2.07031C7.63021 1.1224 8.72396 0.648438 10 0.648438C11.276 0.648438 12.3698 1.1224 13.2812 2.07031C14.1927 2.98177 14.6484 4.07552 14.6484 5.35156C14.6484 6.6276 14.1927 7.72135 13.2812 8.63281Z" fill="#F2F3F7"/>
</svg>
