<svg width="24" height="24" viewBox="0 0 24 24" fill="none" xmlns="http://www.w3.org/2000/svg">
    <path transform="translate(3, 3)" d="M5.71875 10.4062C6.90625 10.125 8 9.98438 9 9.98438C10 9.98438 11.0938 10.125 12.2812 10.4062C13.4688 10.6875 14.5469 11.1562 15.5156 11.8125C16.5156 12.4688 17.0156 13.2031 17.0156 14.0156V17.0156H0.984375V14.0156C0.984375 13.2031 1.46875 12.4688 2.4375 11.8125C3.4375 11.1562 4.53125 10.6875 5.71875 10.4062ZM6.1875 2.20312C6.96875 1.39063 7.90625 0.984375 9 0.984375C10.0938 0.984375 11.0312 1.39063 11.8125 2.20312C12.5938 2.98438 12.9844 3.92188 12.9844 5.01562C12.9844 6.10938 12.5938 7.04688 11.8125 7.82812C11.0312 8.60938 10.0938 9 9 9C7.90625 9 6.96875 8.60938 6.1875 7.82812C5.40625 7.04688 5.01562 6.10938 5.01562 5.01562C5.01562 3.92188 5.40625 2.98438 6.1875 2.20312ZM13.0781 12.7031C11.7344 12.1719 10.375 11.9062 9 11.9062C7.625 11.9062 6.26562 12.1719 4.92188 12.7031C3.57812 13.2031 2.90625 13.6406 2.90625 14.0156V15.0938H15.0938V14.0156C15.0938 13.6406 14.4219 13.2031 13.0781 12.7031ZM10.5 3.51562C10.0938 3.10937 9.59375 2.90625 9 2.90625C8.40625 2.90625 7.90625 3.10937 7.5 3.51562C7.09375 3.92188 6.89062 4.42187 6.89062 5.01562C6.89062 5.60938 7.09375 6.10938 7.5 6.51562C7.90625 6.89062 8.40625 7.07812 9 7.07812C9.59375 7.07812 10.0938 6.89062 10.5 6.51562C10.9062 6.10938 11.1094 5.60938 11.1094 5.01562C11.1094 4.42187 10.9062 3.92188 10.5 3.51562Z" fill="#F2F3F7" />
</svg>