<svg width="24" height="24" viewBox="0 0 24 24" fill="none" xmlns="http://www.w3.org/2000/svg">
<path d="M9.10156 14.8984C9.90365 15.7005 10.8698 16.1016 12 16.1016C13.1302 16.1016 14.0964 15.7005 14.8984 14.8984C15.7005 14.0964 16.1016 13.1302 16.1016 12C16.1016 10.8698 15.7005 9.90365 14.8984 9.10156C14.0964 8.29948 13.1302 7.89844 12 7.89844C10.8698 7.89844 9.90365 8.29948 9.10156 9.10156C8.29948 9.90365 7.89844 10.8698 7.89844 12C7.89844 13.1302 8.29948 14.0964 9.10156 14.8984ZM20.6953 13.1484L23.1562 15.0625C23.4115 15.2448 23.4479 15.5 23.2656 15.8281L20.9141 19.875C20.7682 20.1302 20.5312 20.2031 20.2031 20.0938L17.3047 18.9453C16.5391 19.4922 15.8828 19.875 15.3359 20.0938L14.8984 23.1562C14.8255 23.4844 14.6432 23.6484 14.3516 23.6484H9.64844C9.35677 23.6484 9.17448 23.4844 9.10156 23.1562L8.66406 20.0938C7.97135 19.8021 7.3151 19.4193 6.69531 18.9453L3.79688 20.0938C3.46875 20.2031 3.23177 20.1302 3.08594 19.875L0.734375 15.8281C0.552083 15.5 0.588542 15.2448 0.84375 15.0625L3.30469 13.1484C3.26823 12.8932 3.25 12.5104 3.25 12C3.25 11.4896 3.26823 11.1068 3.30469 10.8516L0.84375 8.9375C0.588542 8.75521 0.552083 8.5 0.734375 8.17188L3.08594 4.125C3.23177 3.86979 3.46875 3.79688 3.79688 3.90625L6.69531 5.05469C7.46094 4.50781 8.11719 4.125 8.66406 3.90625L9.10156 0.84375C9.17448 0.515625 9.35677 0.351562 9.64844 0.351562H14.3516C14.6432 0.351562 14.8255 0.515625 14.8984 0.84375L15.3359 3.90625C16.0286 4.19792 16.6849 4.58073 17.3047 5.05469L20.2031 3.90625C20.5312 3.79688 20.7682 3.86979 20.9141 4.125L23.2656 8.17188C23.4479 8.5 23.4115 8.75521 23.1562 8.9375L20.6953 10.8516C20.7318 11.1068 20.75 11.4896 20.75 12C20.75 12.5104 20.7318 12.8932 20.6953 13.1484Z" fill="#F2F3F7"/>
</svg>
