<svg width="115" height="263" viewBox="0 0 115 263" fill="none" xmlns="http://www.w3.org/2000/svg">
<g clip-path="url(#clip0_39_133)">
<path d="M28.191 79.3029C28.191 79.3029 28.5787 82.5125 32.8018 84.1655C37.0249 85.8185 41.6841 86.3075 42.7087 84.9851C42.7087 84.9851 41.1026 78.5177 28.191 79.3029Z" fill="#C9DAF4"/>
<path d="M39.9534 42.5304C39.3441 45.375 38.7072 48.2609 38.0564 51.1192C37.4057 53.9775 36.7687 56.8496 36.0764 59.701L35.0587 63.9782C34.7056 65.3557 34.3664 66.8227 34.0064 68.2278C33.3141 71.0586 32.5526 73.8618 31.7702 76.603C31.3825 77.9805 30.9741 79.3098 30.5518 80.5496L30.2195 81.4587L30.0602 81.9064C30.0048 82.0579 29.9287 82.2163 29.8664 82.3747L29.4856 83.3046C29.3541 83.6145 29.2364 83.9244 29.0841 84.2413C27.9902 86.7483 26.6956 89.2898 25.3456 91.8175C23.9956 94.3453 22.5763 96.8592 21.1017 99.3525C20.3679 100.606 19.6225 101.85 18.8655 103.086L17.7232 104.938L16.5809 106.75L16.5394 106.812C15.7847 107.953 15.5169 109.347 15.7947 110.685C16.0725 112.023 16.8733 113.196 18.0209 113.947C19.1685 114.698 20.5689 114.964 21.9139 114.688C23.259 114.412 24.4386 113.615 25.1933 112.473L26.4879 110.579C26.9102 109.952 27.3325 109.326 27.7479 108.692C28.5856 107.438 29.4025 106.171 30.2195 104.904C31.8464 102.355 33.4318 99.7795 34.9756 97.1485C36.5195 94.5175 38.008 91.8244 39.3857 88.9661C39.5657 88.6217 39.7318 88.2774 39.898 87.8848L40.4034 86.7828C40.4864 86.5968 40.5765 86.4177 40.6526 86.2249L40.888 85.6463L41.3588 84.4823C41.9541 82.9533 42.4526 81.4725 42.9303 80.0192C43.8857 77.1058 44.758 74.2268 45.5957 71.3478C46.018 69.9083 46.4196 68.4757 46.835 67.0362L48.0326 62.7315C48.8288 59.8594 49.5973 56.9873 50.3588 54.1084C51.1204 51.2294 51.875 48.3711 52.6158 45.4576C52.8425 44.6291 52.901 43.764 52.7881 42.9127C52.6752 42.0615 52.393 41.2411 51.958 40.4995C51.523 39.7578 50.9439 39.1098 50.2545 38.5932C49.5651 38.0766 48.7792 37.7017 47.9427 37.4904C47.1061 37.2791 46.2356 37.2357 45.382 37.3627C44.5284 37.4896 43.7088 37.7844 42.9709 38.2298C42.233 38.6753 41.5917 39.2624 41.0843 39.957C40.5769 40.6517 40.2136 41.4398 40.0157 42.2756C40.0157 42.3445 40.0157 42.4134 39.9672 42.4822L39.9534 42.5304Z" fill="#A54B4A"/>
<path d="M32.5459 117.899L0.917159 100.436C0.0579647 99.9611 -0.251989 98.8836 0.224859 98.0288L12.3831 76.2344C12.86 75.3797 13.9431 75.0713 14.8023 75.5457L46.431 93.0092C47.2902 93.4836 47.6001 94.5611 47.1233 95.4158L34.965 117.21C34.4881 118.065 33.4051 118.373 32.5459 117.899Z" fill="black"/>
<path d="M3.64561 97.028L13.3346 79.6599C13.7576 78.9016 14.7185 78.628 15.4807 79.0489L39.5065 92.3145C40.2687 92.7353 40.5437 93.6912 40.1207 94.4496L30.4317 111.818C30.0086 112.576 29.0478 112.85 28.2855 112.429L4.25979 99.1631C3.49754 98.7422 3.22256 97.7863 3.64561 97.028Z" fill="#594D49"/>
<path d="M12.787 111.385C12.787 111.385 10.9385 109.353 9.32541 107.204C7.9754 105.414 7.94079 104.312 7.94079 104.312C9.2631 105 10.8277 105.882 12.3854 106.77C12.5005 106.071 12.8641 105.435 13.41 104.98C14.3447 104.194 17.5639 101.495 18.3601 102.039C20.1532 103.278 16.1447 106.695 16.1447 106.695C16.1447 106.695 20.3816 103.003 21.4963 104.05C22.4032 104.897 19.4955 108.967 19.4955 108.967C19.4955 108.967 22.507 105.207 23.5178 106.729C24.5286 108.251 20.9078 111.137 20.9078 111.137C20.9078 111.137 24.1201 109.56 24.4386 110.2C24.9024 111.13 23.9263 112.79 21.427 114.746C18.9278 116.702 12.787 111.385 12.787 111.385Z" fill="#A54B4A"/>
<path d="M39.5379 105.469C39.3912 105.73 39.1701 105.942 38.9023 106.079C38.6345 106.215 38.3321 106.269 38.0333 106.235C37.7344 106.201 37.4525 106.079 37.223 105.885C36.9936 105.692 36.8269 105.435 36.744 105.147C36.6611 104.86 36.6657 104.554 36.7572 104.269C36.8487 103.984 37.0231 103.732 37.2582 103.545C37.4934 103.359 37.7789 103.246 38.0786 103.22C38.3784 103.195 38.679 103.258 38.9425 103.402C39.1191 103.498 39.2748 103.628 39.4006 103.784C39.5264 103.94 39.6197 104.119 39.6751 104.311C39.7305 104.504 39.7469 104.705 39.7233 104.904C39.6998 105.102 39.6368 105.294 39.5379 105.469Z" fill="#3D5481"/>
<path d="M44.6749 36.7863C43.3473 37.1898 42.1533 37.941 41.2179 38.9613C40.2824 39.9816 39.64 41.2334 39.3579 42.5856C38.3056 47.3448 30.8979 74.9569 28.1909 79.3029C34.8579 79.0274 39.3995 81.2796 42.7295 84.9851C42.7295 84.9851 53.7303 48.5226 53.0449 43.3363C52.9417 42.3537 52.6413 41.4018 52.1616 40.5368C51.6818 39.6718 51.0325 38.9114 50.252 38.3007C49.4715 37.6899 48.5757 37.2411 47.6177 36.981C46.6598 36.7209 45.659 36.6547 44.6749 36.7863Z" fill="white"/>
<path d="M58.8396 0.489104C58.8396 0.489104 66.2543 -1.70113 72.2982 3.24411C76.542 6.65343 80.6613 13.7131 77.3105 26.1727C73.9597 38.6322 83.749 47.7031 83.749 47.7031L62.225 42.7027L58.8396 0.489104Z" fill="black"/>
<path d="M58.8396 0.489014C58.8396 0.489014 49.3757 0.489014 48.538 8.89868C47.7141 17.4599 53.0588 28.6865 49.4657 32.5642C45.8726 36.4419 44.8895 46.3392 44.8895 46.3392H61.145L66.905 21.496L58.8396 0.489014Z" fill="black"/>
<path d="M16.1378 159.839C16.1378 159.839 16.8717 160.094 18.2148 160.527C19.3502 160.892 20.9287 161.375 22.881 161.905L23.0748 161.96C25.9479 162.78 29.5964 163.744 33.8057 164.715H33.8541C36.5403 165.335 39.448 165.948 42.5357 166.533C50.5946 168.08 58.7508 169.075 66.9466 169.509C73.9568 169.895 80.9878 169.641 87.9514 168.751C89.0176 168.606 90.0768 168.441 91.1222 168.255C91.1222 168.255 86.4145 146.167 82.2191 123.7C82.1498 123.307 82.0737 122.908 81.9975 122.515C81.5752 120.235 81.1598 117.956 80.7514 115.697L80.6267 115.008C80.5298 114.45 80.4329 113.892 80.329 113.341C80.329 113.114 80.2529 112.88 80.2114 112.652C77.9544 99.8691 76.1613 88.174 75.8498 81.8169L38.1188 85.7359C38.1188 85.7359 35.0311 95.3784 31.0226 108.375L30.8149 109.064C30.6487 109.587 30.4895 110.125 30.3233 110.662L30.1156 111.351C29.0979 114.663 28.0387 118.155 26.9587 121.73C26.8895 121.95 26.8271 122.178 26.7579 122.419C22.874 135.34 18.824 149.287 16.1378 159.839Z" fill="white"/>
<path d="M11.6377 252.772C13.1677 250.306 26.924 237.186 26.924 237.186C26.924 237.186 29.7348 239.376 29.5963 241.793C29.4648 244.087 29.5963 256.188 29.6448 258.654H27.9763L26.924 251.946C26.924 251.946 23.1163 257.993 20.2639 260.066C17.4116 262.139 7.80231 261.767 5.44845 261.443C3.09459 261.12 10.1008 255.21 11.6377 252.772Z" fill="black"/>
<path d="M28.5717 231.173L26.7439 236.573C27.2216 237.992 27.2216 239.527 26.7439 240.946C25.9686 243.557 23.047 247.696 20.2639 250.775C17.8547 253.419 12.7038 256.064 11.16 255.375C9.61612 254.687 14.0885 249.39 15.4039 246.628C16.5017 244.155 17.272 241.551 17.6954 238.88C18.1454 236.497 18.4362 230.649 18.4362 230.649L28.5717 231.173Z" fill="#A54B4A"/>
<path d="M65.8458 235.973C65.8458 235.973 62.7235 237.234 62.6058 241.614C62.4881 245.995 62.5504 258.633 62.5504 258.633H64.1427L65.0635 253.289C65.0635 253.289 65.6104 257.614 67.8328 260.376C70.0551 263.138 74.7559 263.255 77.899 262.793C81.0421 262.332 78.709 256.595 77.4351 253.357C76.1613 250.12 73.4613 242.441 73.4613 242.441L65.8458 235.973Z" fill="black"/>
<path d="M66.6489 229.713C66.6489 229.713 66.7528 235.05 65.8251 235.973C64.8974 236.896 63.6235 239.885 64.5512 243.55C65.4789 247.214 66.0951 252.607 68.2551 254.907C70.4151 257.208 76.0436 257.283 76.5074 255.444C76.9713 253.605 73.6551 246.773 73.5028 243.24C73.3505 239.706 72.7274 230.195 72.7274 230.195L66.6489 229.713Z" fill="#A54B4A"/>
<path d="M33.404 119.843C41.2133 124.313 60.0927 126.62 72.4089 121.751C76.9297 119.967 77.719 118.872 77.3797 110.8L77.3382 109.904C77.3013 109.261 77.2597 108.628 77.2136 108.003C77.2136 107.7 77.1651 107.397 77.1443 107.094C77.0474 105.971 76.9436 104.863 76.819 103.802C76.819 103.513 76.7566 103.223 76.722 102.934C76.4686 100.869 76.0847 98.8214 75.5728 96.8041C75.5036 96.508 75.4274 96.2325 75.3513 95.9639C74.9151 94.3522 74.562 93.3879 74.562 93.3879C72.5469 93.7022 70.5149 93.8977 68.4766 93.9734H67.6043C56.9565 94.2558 46.1426 91.8589 41.0956 90.5296L40.251 90.3092C38.9425 89.9579 38.1741 89.7307 38.1741 89.7307C38.1741 89.7307 37.7102 90.5365 37.0664 91.8589L36.6925 92.6441C35.3679 95.4126 34.34 98.3122 33.6256 101.295C33.6223 101.336 33.6223 101.378 33.6256 101.419C33.5563 101.701 33.494 101.99 33.4387 102.28L33.3971 102.452C32.8917 104.849 32.4279 107.363 32.1094 109.773C32.0679 110.083 32.0333 110.386 31.9917 110.689C31.3825 116.007 31.2925 118.617 33.404 119.843Z" fill="#4590DC"/>
<path d="M33.4041 102.493H33.4664C35.1375 101.537 36.5601 100.204 37.6202 98.6018C37.7795 98.3676 37.9387 98.1265 38.0979 97.8717C39.4402 95.6056 40.4387 93.1548 41.061 90.5984L40.2164 90.3781C39.6107 92.8811 38.6305 95.2795 37.3087 97.4929C37.1495 97.7408 36.9902 97.9819 36.8241 98.2161C35.9737 99.4621 34.8873 100.531 33.6256 101.364C33.6224 101.405 33.6224 101.446 33.6256 101.488C33.5564 101.77 33.4941 102.059 33.4387 102.349L33.4041 102.493Z" fill="#594D49"/>
<path d="M67.6043 93.9871C67.8487 96.6551 68.5365 99.2642 69.6397 101.708C69.7712 101.984 69.9097 102.245 70.0551 102.507C70.8042 103.904 71.8312 105.134 73.0735 106.123C74.2832 107.075 75.7098 107.716 77.2274 107.989C77.2274 107.686 77.179 107.383 77.1582 107.08C75.8636 106.811 74.6499 106.245 73.6135 105.427C72.5393 104.576 71.6412 103.526 70.9689 102.335C70.8166 102.08 70.6781 101.811 70.5397 101.536C69.4138 99.1483 68.7111 96.5852 68.4627 93.9596L67.6043 93.9871Z" fill="#594D49"/>
<path d="M36.7272 92.6854C37.3295 92.9471 37.9734 93.2226 38.6657 93.4981C38.9357 93.6083 39.2057 93.7185 39.4895 93.8218C44.2893 95.7268 49.3229 96.9868 54.4573 97.5686L55.1081 97.6306C60.0109 98.0247 64.9395 97.9763 69.8336 97.4859L70.7474 97.3964C72.5751 97.2104 74.209 96.9969 75.5936 96.7903C75.5244 96.4941 75.4482 96.2186 75.3721 95.95C73.9875 96.1567 72.2913 96.3771 70.4151 96.563L69.5151 96.6457C64.546 97.137 59.5412 97.1578 54.5681 96.7077C49.55 96.1336 44.6294 94.9063 39.9326 93.0573L39.1157 92.7336C38.4234 92.4512 37.7311 92.1688 37.1218 91.9002L36.7272 92.6854Z" fill="#594D49"/>
<path d="M36.2356 210.676C33.7918 219.402 31.1748 228.845 29.2433 235.801H16.9478L23.6563 173.297L23.7671 172.243L24.0232 169.86C24.5355 147.386 27.3948 126.214 32.1164 109.815L53.0519 119.512C52.048 144.218 44.8618 157.166 39.2818 173.552C39.2818 173.566 42.7364 188.718 36.2356 210.676Z" fill="#4590DC"/>
<path d="M17.6955 232.895C17.636 232.902 17.5755 232.897 17.5181 232.88C17.4607 232.862 17.4077 232.833 17.3627 232.793C17.3176 232.754 17.2815 232.705 17.2568 232.651C17.232 232.597 17.2192 232.538 17.2192 232.478C17.2192 232.418 17.232 232.359 17.2568 232.305C17.2815 232.25 17.3176 232.202 17.3627 232.162C17.4077 232.123 17.4607 232.094 17.5181 232.076C17.5755 232.059 17.636 232.054 17.6955 232.061L29.8041 231.889C29.8592 231.888 29.914 231.898 29.9652 231.919C30.0164 231.939 30.063 231.969 30.1023 232.008C30.1416 232.046 30.1728 232.092 30.1941 232.143C30.2154 232.193 30.2264 232.247 30.2264 232.302C30.2273 232.357 30.2173 232.412 30.1969 232.464C30.1765 232.515 30.1462 232.562 30.1076 232.601C30.069 232.641 30.023 232.673 29.9721 232.695C29.9212 232.717 29.8665 232.728 29.811 232.729L17.6955 232.895Z" fill="#2F5AA9"/>
<path d="M23.6563 173.297C24.5699 173.464 25.4967 173.55 26.4256 173.552C27.4729 173.558 28.5169 173.435 29.5341 173.187C29.6065 173.176 29.6759 173.15 29.7378 173.112C29.7997 173.073 29.8527 173.021 29.8936 172.961C29.9344 172.9 29.9621 172.832 29.9749 172.76C29.9877 172.689 29.9853 172.615 29.9679 172.544C29.9505 172.474 29.9184 172.407 29.8738 172.35C29.8291 172.292 29.7728 172.244 29.7086 172.209C29.6443 172.174 29.5734 172.153 29.5004 172.147C29.4274 172.141 29.354 172.15 29.2848 172.174C27.4652 172.594 25.5759 172.618 23.7463 172.243L23.6563 173.297Z" fill="#2F5AA9"/>
<path d="M34.1656 209.147C32.4971 215.958 30.2194 224.864 28.2948 232.316H27.3948C29.3264 224.822 31.6318 215.786 33.3141 208.94C36.7756 194.814 35.6472 172.25 35.6333 172.023C35.6295 171.949 35.6463 171.875 35.6818 171.809C42.9334 157.195 47.5207 141.417 49.2303 125.208C49.2386 125.093 49.2925 124.986 49.3801 124.911C49.4677 124.835 49.582 124.797 49.6976 124.805C49.8133 124.814 49.921 124.867 49.9969 124.954C50.0729 125.042 50.1109 125.155 50.1026 125.27C48.3827 141.559 43.777 157.415 36.4987 172.105C36.5956 173.876 37.5303 195.42 34.1656 209.147Z" fill="#2F5AA9"/>
<path d="M77.0752 173.263C77.0752 174.488 76.999 175.728 76.9575 176.982L75.9744 235.801H64.3089C62.9243 227.66 60.9028 215.504 58.9227 203.747C55.4127 182.864 59.165 174.895 59.165 174.895C59.165 174.895 54.5819 133.763 54.2496 123.087L77.3798 110.786C77.3798 110.786 82.7521 129.244 77.1098 172.147C77.1029 172.519 77.089 172.877 77.0752 173.263Z" fill="#4590DC"/>
<path d="M60.7712 194.462C61.2765 197.851 64.2327 218.176 66.2543 232.344H65.3681C63.2912 218.217 60.2935 198.009 59.7881 194.634C58.5004 186.025 61.1727 175.067 61.4289 173.972L55.4611 124.871C55.4474 124.74 55.4852 124.61 55.5667 124.507C55.6481 124.404 55.7668 124.337 55.8973 124.32C55.9615 124.311 56.0269 124.315 56.0894 124.332C56.152 124.349 56.2105 124.378 56.2615 124.418C56.3125 124.458 56.3549 124.508 56.3863 124.564C56.4177 124.621 56.4374 124.683 56.4442 124.747L62.4327 173.896C62.443 173.958 62.443 174.021 62.4327 174.082C62.3842 174.192 59.4419 185.626 60.7712 194.462Z" fill="#2F5AA9"/>
<path d="M75.6905 232.392H64.0319C63.9199 232.392 63.8125 232.348 63.7333 232.269C63.6541 232.19 63.6096 232.083 63.6096 231.972C63.6096 231.86 63.6541 231.753 63.7333 231.675C63.8125 231.596 63.9199 231.552 64.0319 231.552H75.6905C75.8025 231.552 75.9099 231.596 75.9891 231.675C76.0683 231.753 76.1128 231.86 76.1128 231.972C76.1128 232.083 76.0683 232.19 75.9891 232.269C75.9099 232.348 75.8025 232.392 75.6905 232.392Z" fill="#2F5AA9"/>
<path d="M69.3073 173.566C70.3243 173.816 71.3683 173.941 72.4158 173.937C73.9981 173.925 75.571 173.694 77.0889 173.249C77.0889 172.877 77.0889 172.505 77.1235 172.133C74.6858 172.949 72.0724 173.099 69.5566 172.567C69.4902 172.549 69.4209 172.545 69.3529 172.555C69.285 172.565 69.2197 172.588 69.1609 172.623C69.1021 172.659 69.0511 172.706 69.0108 172.761C68.9706 172.816 68.9419 172.879 68.9266 172.946C68.8952 173.078 68.9176 173.217 68.9889 173.333C69.0602 173.449 69.1746 173.533 69.3073 173.566Z" fill="#2F5AA9"/>
<path d="M52.235 120.263C52.2211 120.377 52.1623 120.481 52.0714 120.552C51.9806 120.623 51.8651 120.655 51.7503 120.642C51.6356 120.628 51.5311 120.57 51.4597 120.479C51.3883 120.389 51.3559 120.274 51.3696 120.16C51.5634 118.541 51.7503 116.881 51.9234 115.228C51.9234 114.932 51.9857 114.643 52.0134 114.354C52.5811 108.933 53.045 103.595 53.3427 99.8208C53.3427 99.5178 53.3911 99.2216 53.4119 98.9392C53.4811 98.1127 53.5365 97.3758 53.585 96.7559H54.4573C54.4157 97.3827 54.3534 98.1334 54.2911 98.9599C54.2911 99.2423 54.2427 99.5385 54.2219 99.8415C53.9173 103.581 53.4673 108.871 52.9065 114.257C52.9065 114.553 52.8442 114.856 52.8096 115.152C52.6296 116.867 52.4357 118.589 52.235 120.263Z" fill="#2F5AA9"/>
<path d="M54.4157 114.815C53.8889 114.965 53.3522 115.077 52.8095 115.152C52.5326 115.187 52.228 115.214 51.9234 115.228C51.646 115.237 51.3683 115.226 51.0926 115.194C50.5981 115.154 50.1217 114.991 49.708 114.719C49.4711 114.542 49.2798 114.312 49.1498 114.047C49.0198 113.782 48.9548 113.491 48.9603 113.196C48.9603 111.488 49.4241 104.546 49.798 99.6418C49.798 99.3387 49.8395 99.0426 49.8603 98.7602C49.9226 97.975 49.978 97.2587 50.0264 96.6526H50.8988C50.8503 97.2656 50.7949 97.9888 50.7326 98.7808C50.7326 99.0701 50.6911 99.3594 50.6634 99.6624C50.2964 104.559 49.798 111.488 49.8326 113.141C49.8227 113.303 49.8536 113.465 49.9225 113.611C49.9915 113.758 50.0962 113.885 50.2272 113.982C50.767 114.279 51.3864 114.402 51.9995 114.333C52.3041 114.333 52.6088 114.278 52.8926 114.236C53.3184 114.173 53.7394 114.081 54.1526 113.961C54.2637 113.928 54.3834 113.94 54.4853 113.995C54.5872 114.05 54.663 114.143 54.6961 114.254C54.7291 114.364 54.7167 114.483 54.6615 114.585C54.6063 114.686 54.5129 114.761 54.4019 114.794L54.4157 114.815Z" fill="#2F5AA9"/>
<path d="M73.5236 89.7789L70.8305 101.006C64.1081 100.468 56.1534 99.5041 50.158 96.4184C50.158 96.4184 42.1757 99.0908 38.1326 97.8442L41.0956 89.7789H73.5236Z" fill="white"/>
<path d="M77.532 101.006C76.4446 95.6214 75.778 90.1617 75.5382 84.6752C75.8497 82.361 75.8705 79.8539 76.5074 77.4295C78.439 71.8782 80.7028 67.8972 82.7382 62.1599C82.8697 61.788 83.0013 61.416 83.1397 61.0441C83.2228 60.8031 83.3128 60.562 83.4028 60.3554C84.0951 58.5577 84.7875 56.7739 85.5213 55.0451C88.7613 47.5308 89.2875 39.0523 81.4851 36.4488L79.8167 35.9116C76.1266 34.7544 73.0528 33.9899 72.2012 33.7833L71.9658 33.7282L55.5857 35.1057L54.028 35.2366C51.7365 35.4914 49.3134 35.4225 47.7972 35.76C46.4541 36.0562 45.6372 35.9804 44.2595 36.3868C41.0333 37.3373 41.1233 41.6557 40.1056 47.0211C40.1056 47.1107 40.1056 47.2071 40.0572 47.2966V47.3862C39.8841 48.3022 39.6695 49.2045 39.4341 50.0998C39.1987 50.9952 38.8733 52.0835 38.5687 53.0408C36.6787 58.9365 34.4148 61.6364 34.7887 65.3488C35.1417 68.7099 38.5825 73.2901 39.5033 74.2613C39.711 74.4886 39.8356 74.6056 39.8356 74.6056C39.839 74.6239 39.839 74.6425 39.8356 74.6607C39.8356 74.7916 39.8356 74.9362 39.7872 75.0809C39.7179 75.6548 39.621 76.3229 39.4964 77.0852C37.281 88.5735 34.5671 98.2298 34.5671 98.2298C34.5671 98.2298 59.075 102.108 77.532 101.006Z" fill="white"/>
<path d="M38.1533 72.4016C38.0962 72.4022 38.0395 72.3909 37.9871 72.3684C37.9346 72.3458 37.8874 72.3126 37.8487 72.2708C37.641 72.0573 32.9125 67.0362 34.5602 62.4492C34.9964 61.1819 35.5295 59.9214 36.0764 58.5439C37.7864 54.4114 39.7318 49.721 40.2303 43.6462C40.2293 43.5876 40.2408 43.5294 40.2638 43.4754C40.2868 43.4214 40.321 43.3729 40.364 43.3328C40.4071 43.2927 40.4581 43.2621 40.5138 43.2428C40.5694 43.2235 40.6286 43.2161 40.6873 43.2209C40.746 43.2257 40.8031 43.2428 40.8549 43.2709C40.9066 43.299 40.9519 43.3375 40.9877 43.3841C41.0236 43.4306 41.0492 43.4841 41.0631 43.5411C41.0769 43.5981 41.0785 43.6574 41.068 43.7151C40.5626 49.9139 38.5895 54.6731 36.8587 58.8677C36.2979 60.2452 35.7648 61.4918 35.3148 62.7522C33.8402 66.8434 38.3679 71.6578 38.4164 71.706C38.495 71.7847 38.5392 71.8912 38.5392 72.0022C38.5392 72.1131 38.495 72.2196 38.4164 72.2983C38.3427 72.3609 38.2501 72.3972 38.1533 72.4016Z" fill="#C9DAF4"/>
<path d="M53.6404 58.785C55.1842 58.0963 59.0127 56.8152 61.0274 52.1523C61.1797 51.7942 61.3389 51.4636 61.4981 51.071C65.0981 42.8886 69.5082 34.5065 69.5082 34.5065L57.5381 34.8991C55.3064 39.236 53.339 43.7026 51.6465 48.2747C51.4291 48.7521 51.262 49.2506 51.1481 49.7624C50.5457 54.1497 53.6404 58.785 53.6404 58.785Z" fill="#4590DC"/>
<path d="M50.8156 50.761C51.5564 52.1385 53.1418 54.1497 56.098 53.95C57.8341 53.6748 59.4993 53.0641 60.9996 52.1523C61.1519 51.7942 61.3111 51.4636 61.4703 51.071C59.4834 52.2212 57.4757 53.1372 56.0218 53.2405C52.9341 53.4472 51.5564 50.885 51.1064 49.7968C51.0233 50.0929 50.9195 50.4235 50.8156 50.761Z" fill="#2F5AA9"/>
<path d="M53.6404 18.0453C53.6404 18.0453 51.7919 15.8689 50.7396 18.0453C49.6873 20.2218 50.5042 24.6298 53.3219 23.9066L53.6404 18.0453Z" fill="#6B2131"/>
<path d="M58.1127 29.3891L57.8704 35.3123C57.8704 35.3123 61.332 40.5744 70.7889 34.293C68.9889 32.2956 68.9197 28.4937 69.6466 26.1933C69.0117 26.4449 68.4001 26.7514 67.8189 27.1093C67.5717 27.2341 67.3174 27.3444 67.0574 27.4399C64.6897 28.4248 61.1173 29.6164 58.1127 29.3891Z" fill="#A54B4A"/>
<path d="M58.1128 29.3891L57.9951 32.1992C60.5774 31.6275 65.2228 30.2224 67.819 27.1093L67.0574 27.4399C64.6897 28.4248 61.1174 29.6163 58.1128 29.3891Z" fill="black"/>
<path d="M51.5841 18.0384C51.5841 18.6583 51.5841 19.2438 51.5841 19.8016C51.6464 24.0581 51.9303 26.3792 52.9688 27.4261C58.0434 32.64 69.2935 26.4137 69.6535 26.2139C69.7573 25.7456 69.8543 25.2841 69.9373 24.8364C70.6063 21.2383 70.7276 17.5606 70.2973 13.9266C70.4007 12.1631 69.9335 10.4131 68.9642 8.93316C67.9949 7.45318 66.5744 6.32109 64.9112 5.70289C61.3734 4.42181 58.1957 5.96461 56.2919 6.55005C53.4118 7.43166 51.6049 11.1371 51.5841 16.4061V18.0384Z" fill="#A54B4A"/>
<path d="M54.9349 11.6124C54.9349 11.6124 55.9872 11.7157 55.6272 12.673C55.2672 13.6304 53.1488 12.5766 51.6395 14.3398C51.6257 14.3398 50.9818 12.0394 54.9349 11.6124Z" fill="black"/>
<path d="M59.6982 11.6124C59.6982 11.6124 58.6458 11.7157 59.0058 12.673C59.3658 13.6304 61.4843 12.5766 62.9936 14.3398C63.0074 14.3398 63.6513 12.0394 59.6982 11.6124Z" fill="black"/>
<path d="M53.3842 20.5799C54.0925 20.3934 54.7292 20.0022 55.2139 19.4556C55.6986 18.909 56.0095 18.2317 56.1073 17.5094C56.205 16.787 56.0852 16.052 55.763 15.3974C55.4409 14.7428 54.9308 14.1979 54.2973 13.8317C53.6638 13.4655 52.9354 13.2945 52.2042 13.3402C51.473 13.3859 50.7718 13.6463 50.1894 14.0885C49.607 14.5307 49.1695 15.1349 48.9322 15.8245C48.695 16.5141 48.6686 17.2582 48.8565 17.9627C49.1099 18.9059 49.7286 19.7109 50.5771 20.2014C51.4257 20.6919 52.435 20.828 53.3842 20.5799ZM51.6257 13.9748C52.2306 13.8158 52.8693 13.8388 53.461 14.0409C54.0527 14.243 54.571 14.615 54.9502 15.11C55.3294 15.6051 55.5526 16.2008 55.5916 16.822C55.6305 17.4432 55.4835 18.062 55.169 18.6C54.8546 19.1381 54.3868 19.5714 53.8249 19.845C53.263 20.1187 52.6322 20.2205 52.0121 20.1375C51.3921 20.0546 50.8107 19.7906 50.3414 19.379C49.8722 18.9673 49.5361 18.4265 49.3757 17.8249C49.16 17.0194 49.2743 16.1616 49.6935 15.4398C50.1127 14.718 50.8027 14.1911 51.6119 13.9748H51.6257Z" fill="white"/>
<path d="M55.9595 18.9613C55.7713 18.9602 55.5836 18.9417 55.3988 18.9062C55.3618 18.8968 55.3272 18.8796 55.2974 18.8558C55.2675 18.8321 55.2431 18.8023 55.2257 18.7685C55.1985 18.6975 55.1985 18.6191 55.2257 18.5481L56.2572 15.6209C56.2689 15.5864 56.2873 15.5546 56.3115 15.5273C56.3356 15.4999 56.3649 15.4776 56.3977 15.4616C56.4305 15.4456 56.4662 15.4362 56.5027 15.434C56.5392 15.4318 56.5758 15.4368 56.6103 15.4487C56.6449 15.4602 56.6767 15.4786 56.704 15.5027C56.7312 15.5268 56.7533 15.5562 56.7688 15.589C56.7843 15.6218 56.793 15.6575 56.7943 15.6937C56.7956 15.73 56.7896 15.7661 56.7765 15.8L55.8626 18.4034C56.2561 18.4273 56.6486 18.344 56.998 18.1624C57.0637 18.1294 57.1395 18.1224 57.2102 18.1429C57.2809 18.1633 57.3411 18.2097 57.3788 18.2726C57.4131 18.3384 57.42 18.4151 57.398 18.486C57.376 18.5569 57.3268 18.6163 57.2611 18.6514C56.86 18.8612 56.4126 18.9677 55.9595 18.9613Z" fill="black"/>
<path d="M60.0373 18.92C60.0373 19.409 61.0481 19.8016 62.2942 19.8016C63.5404 19.8016 64.5511 19.409 64.5511 18.92C64.5511 18.431 63.5404 18.0384 62.2942 18.0384C61.0481 18.0384 60.0373 18.431 60.0373 18.92Z" fill="#6B2131"/>
<path d="M61.6158 20.5248C62.324 20.3383 62.9608 19.947 63.4455 19.4005C63.9302 18.8539 64.2411 18.1766 64.3388 17.4542C64.4366 16.7319 64.3168 15.9969 63.9946 15.3423C63.6724 14.6877 63.1623 14.1428 62.5289 13.7766C61.8954 13.4104 61.167 13.2394 60.4358 13.2851C59.7046 13.3308 59.0034 13.5912 58.421 14.0334C57.8386 14.4756 57.4011 15.0797 57.1638 15.7693C56.9265 16.4589 56.9002 17.2031 57.088 17.9076C57.3431 18.8498 57.9621 19.6536 58.8101 20.1438C59.6582 20.634 60.6667 20.771 61.6158 20.5248ZM59.8573 13.9197C60.4622 13.7607 61.1008 13.7837 61.6926 13.9858C62.2843 14.1878 62.8025 14.5599 63.1818 15.0549C63.561 15.5499 63.7842 16.1457 63.8231 16.7669C63.8621 17.3881 63.7151 18.0069 63.4006 18.5449C63.0862 19.083 62.6184 19.5162 62.0565 19.7899C61.4946 20.0636 60.8638 20.1653 60.2437 20.0824C59.6237 19.9994 59.0423 19.7355 58.573 19.3238C58.1037 18.9122 57.7677 18.3714 57.6073 17.7698C57.4998 17.37 57.4727 16.953 57.5277 16.5428C57.5827 16.1326 57.7186 15.7372 57.9277 15.3794C58.1368 15.0216 58.4149 14.7085 58.7461 14.4579C59.0772 14.2074 59.4549 14.0245 59.8573 13.9197Z" fill="white"/>
<path d="M57.4273 16.3716C57.4686 16.3503 57.506 16.3224 57.5381 16.289C57.5808 16.2319 57.5996 16.1605 57.5906 16.0899C57.5815 16.0193 57.5454 15.9549 57.4897 15.9102C57.2204 15.7118 56.8971 15.5991 56.5623 15.5868C56.2275 15.5746 55.8967 15.6633 55.6135 15.8413C55.552 15.8778 55.5076 15.9372 55.49 16.0063C55.4725 16.0754 55.4833 16.1486 55.52 16.2098C55.5567 16.271 55.6164 16.3152 55.6859 16.3326C55.7553 16.35 55.8289 16.3393 55.8904 16.3028C56.0783 16.1792 56.2986 16.1134 56.5239 16.1134C56.7491 16.1134 56.9694 16.1792 57.1573 16.3028C57.1918 16.3376 57.2351 16.3624 57.2827 16.3745C57.3303 16.3867 57.3803 16.3857 57.4273 16.3716Z" fill="white"/>
<path d="M64.0805 16.53H64.1774C65.459 16.1137 66.8502 16.1849 68.0821 16.7298C68.1463 16.7617 68.2207 16.767 68.2889 16.7444C68.357 16.7218 68.4134 16.6732 68.4455 16.6092C68.4777 16.5453 68.4829 16.4713 68.4602 16.4035C68.4375 16.3357 68.3886 16.2796 68.3244 16.2477C66.9639 15.6357 65.4221 15.5546 64.0043 16.0204C63.9442 16.0402 63.8929 16.0805 63.8596 16.1341C63.8263 16.1878 63.813 16.2514 63.8221 16.3138C63.8311 16.3762 63.862 16.4335 63.9093 16.4755C63.9565 16.5176 64.0171 16.5418 64.0805 16.5438V16.53Z" fill="white"/>
<path d="M51.5842 18.0384C51.5842 18.6583 51.5842 19.2437 51.5842 19.8016C52.7334 19.7603 53.6611 19.3815 53.6611 18.92C53.6611 18.4586 52.7404 18.0797 51.5842 18.0384Z" fill="#6B2131"/>
<path d="M60.522 16.4061C60.522 17.0948 60.8266 17.6183 61.2143 17.6183C61.602 17.6183 61.9066 17.0742 61.9066 16.4061C61.9066 15.738 61.602 15.187 61.2143 15.187C60.8266 15.187 60.522 15.7311 60.522 16.4061Z" fill="black"/>
<path d="M53.8549 16.4061C53.8549 17.0948 54.1595 17.6183 54.5472 17.6183C54.9349 17.6183 55.2395 17.0742 55.2395 16.4061C55.2395 15.738 54.9349 15.187 54.5472 15.187C54.1595 15.187 53.8549 15.7311 53.8549 16.4061Z" fill="black"/>
<path d="M56.2088 22.8046C55.7717 22.806 55.3388 22.7201 54.9357 22.5522C54.5326 22.3842 54.1674 22.1374 53.8618 21.8265C53.8136 21.7746 53.7873 21.7061 53.7884 21.6354C53.7895 21.5646 53.8179 21.497 53.8677 21.4465C53.9176 21.396 53.985 21.3666 54.0561 21.3642C54.1272 21.3619 54.1964 21.3869 54.2495 21.434C56.278 23.4038 58.978 21.2411 59.0957 21.1447C59.1527 21.0981 59.2258 21.0759 59.2992 21.083C59.3726 21.0901 59.4401 21.1259 59.4869 21.1826C59.5337 21.2392 59.556 21.312 59.5489 21.385C59.5417 21.458 59.5057 21.5251 59.4488 21.5717C58.5191 22.2995 57.3893 22.7294 56.2088 22.8046Z" fill="black"/>
<path d="M67.4451 23.4933C67.4451 23.5691 68.3659 25.6147 69.6397 26.2484C69.7436 25.78 69.8336 25.3185 69.9236 24.8709C68.9859 24.647 68.1284 24.1703 67.4451 23.4933Z" fill="black"/>
<path d="M68.6774 18.8374C68.6774 18.8374 71.3843 15.2352 73.3505 18.066C74.9774 20.4008 71.8966 26.4756 68.6774 24.3956V18.8374Z" fill="#A54B4A"/>
<path d="M71.4744 23.1696C71.4744 23.3059 71.4338 23.439 71.3577 23.5523C71.2816 23.6656 71.1735 23.7538 71.047 23.806C70.9205 23.8581 70.7813 23.8717 70.647 23.8452C70.5127 23.8186 70.3893 23.753 70.2925 23.6567C70.1957 23.5603 70.1298 23.4376 70.103 23.304C70.0763 23.1704 70.09 23.0319 70.1424 22.9061C70.1948 22.7802 70.2836 22.6727 70.3974 22.597C70.5113 22.5213 70.6451 22.4809 70.7821 22.4809C70.9657 22.4809 71.1418 22.5535 71.2716 22.6826C71.4014 22.8118 71.4744 22.987 71.4744 23.1696Z" fill="white"/>
<path d="M69.0444 23.3074C69.0082 23.304 68.9731 23.2934 68.9411 23.2761C68.9091 23.2589 68.881 23.2355 68.8584 23.2072C68.8357 23.1789 68.8191 23.1463 68.8094 23.1115C68.7997 23.0766 68.7972 23.0402 68.8021 23.0043C68.9006 22.112 69.2324 21.2609 69.7644 20.5359C70.2964 19.8108 71.0101 19.2371 71.8344 18.8718C71.8679 18.8573 71.904 18.8498 71.9406 18.8496C71.9771 18.8495 72.0133 18.8567 72.047 18.8709C72.0807 18.885 72.1111 18.9059 72.1364 18.9321C72.1617 18.9583 72.1815 18.9893 72.1944 19.0233C72.2089 19.0567 72.2165 19.0926 72.2167 19.129C72.2168 19.1654 72.2096 19.2014 72.1953 19.2349C72.1811 19.2684 72.1602 19.2986 72.1338 19.3238C72.1075 19.349 72.0763 19.3686 72.0421 19.3815C71.3042 19.7052 70.6639 20.2146 70.1844 20.8596C69.7048 21.5046 69.4026 22.2628 69.3074 23.0594C69.3023 23.1258 69.2725 23.188 69.2239 23.2338C69.1753 23.2797 69.1113 23.3059 69.0444 23.3074Z" fill="black"/>
<path d="M71.6336 21.6337C71.5702 21.6344 71.5088 21.6124 71.4605 21.5717C71.2182 21.3789 70.4912 20.883 70.0066 21.0207C69.9721 21.03 69.936 21.0324 69.9005 21.0278C69.865 21.0231 69.8308 21.0114 69.7999 20.9935C69.769 20.9756 69.7419 20.9517 69.7204 20.9232C69.6988 20.8948 69.6832 20.8624 69.6743 20.8279C69.664 20.7926 69.661 20.7556 69.6656 20.7191C69.6702 20.6826 69.6823 20.6475 69.7011 20.6158C69.72 20.5842 69.7451 20.5567 69.775 20.5352C69.8049 20.5136 69.839 20.4983 69.8751 20.4904C70.7059 20.2769 71.7028 21.0552 71.8136 21.1447C71.8582 21.1809 71.8904 21.2301 71.9056 21.2853C71.9209 21.3406 71.9184 21.3992 71.8986 21.453C71.8788 21.5068 71.8427 21.5531 71.7951 21.5855C71.7476 21.6179 71.6911 21.6348 71.6336 21.6337Z" fill="black"/>
<path d="M34.5325 98.1816C32.2894 103.988 24.3071 136.717 18.2216 160.521C21.8217 161.795 35.4533 165.294 42.5356 166.678L49.7772 99.6418L34.5325 98.1816Z" fill="white"/>
<path d="M26.9725 121.723C27.2992 121.835 27.6351 121.918 27.9763 121.971L28.2879 122.012C28.9707 122.105 29.6655 122.055 30.3281 121.867C30.9906 121.678 31.6067 121.355 32.1371 120.917C34.5256 119.016 35.7233 115.139 36.291 112.535C36.3395 112.294 36.3879 112.067 36.4295 111.846C36.5679 111.158 36.651 110.565 36.6925 110.235L31.3133 109.174L30.8287 109.078L31.0364 108.389L31.4933 108.478L37.1426 109.601C37.2282 109.616 37.3049 109.663 37.3575 109.732C37.4101 109.801 37.4347 109.887 37.4264 109.973C37.4264 110.311 36.5679 118.238 32.5802 121.448C31.6066 122.255 30.386 122.709 29.1187 122.736C28.8088 122.746 28.4987 122.732 28.191 122.694L27.7963 122.639C27.4472 122.577 27.1026 122.492 26.7648 122.384C26.8409 122.171 26.9033 121.944 26.9725 121.723Z" fill="#C9DAF4"/>
<path d="M30.1294 111.344L30.704 111.454L36.291 112.535L36.6441 112.604H36.7133C36.7941 112.604 36.8722 112.575 36.9342 112.524C36.9961 112.472 37.038 112.401 37.0525 112.322C37.0689 112.231 37.049 112.138 36.9973 112.062C36.9455 111.986 36.866 111.934 36.7756 111.915L36.4294 111.846L30.8909 110.779L30.344 110.676L30.1294 111.344Z" fill="#C9DAF4"/>
<path d="M77.0267 100.978C78.7713 106.949 83.9498 144.542 87.9652 168.779C68.892 170.218 48.2611 169.061 42.5357 166.678L53.6127 58.7988L77.0267 100.978Z" fill="white"/>
<path d="M46.1426 167.808C46.1999 167.807 46.2564 167.794 46.3087 167.771C46.361 167.748 46.408 167.714 46.4469 167.672C46.4858 167.631 46.5156 167.581 46.5347 167.528C46.5538 167.474 46.5617 167.417 46.558 167.36C45.5195 142.42 48.2957 113.775 50.8088 94.1456C53.5296 72.8631 56.5342 57.2904 56.5619 57.1389C56.573 57.0837 56.573 57.0269 56.5619 56.9717C56.5508 56.9165 56.5289 56.8641 56.4973 56.8173C56.4658 56.7706 56.4253 56.7306 56.3782 56.6994C56.331 56.6683 56.2782 56.6468 56.2227 56.6361C56.1098 56.6137 55.9926 56.6367 55.8966 56.6999C55.8007 56.7631 55.7337 56.8615 55.7103 56.9736C55.7103 57.132 52.6711 72.7322 49.9503 94.0354C47.4372 113.699 44.6541 142.393 45.6926 167.401C45.7014 167.513 45.7529 167.618 45.8365 167.693C45.9202 167.769 46.0297 167.81 46.1426 167.808Z" fill="#C9DAF4"/>
<path d="M53.0588 60.6102H53.2111L53.3842 60.562L53.5158 60.4862L53.6335 60.3898C53.7061 60.3181 53.7637 60.2328 53.8031 60.1388C53.8424 60.0448 53.8627 59.944 53.8627 59.8422C53.8627 59.7404 53.8424 59.6397 53.8031 59.5457C53.7637 59.4517 53.7061 59.3664 53.6335 59.2947L53.5158 59.1983L53.3842 59.1294L53.2388 59.0812C53.1147 59.0597 52.9872 59.0679 52.8668 59.105C52.7465 59.1421 52.6367 59.2071 52.5465 59.2947C52.4392 59.4039 52.3665 59.5421 52.3376 59.6921C52.3086 59.842 52.3247 59.9972 52.3837 60.1382C52.4428 60.2791 52.5422 60.3997 52.6696 60.4849C52.7971 60.57 52.9469 60.616 53.1004 60.6171L53.0588 60.6102Z" fill="#C9DAF4"/>
<path d="M43.5465 156.622C43.5502 156.417 43.4722 156.219 43.3296 156.07C43.187 155.922 42.9912 155.836 42.7849 155.83C42.5786 155.826 42.3792 155.904 42.2301 156.046C42.0809 156.188 41.9942 156.383 41.9888 156.588C41.9851 156.69 42.002 156.792 42.0385 156.887C42.075 156.983 42.1304 157.07 42.2014 157.144C42.2724 157.218 42.3576 157.277 42.4518 157.317C42.5461 157.358 42.6476 157.379 42.7503 157.38C42.9566 157.384 43.1561 157.306 43.3052 157.164C43.4543 157.022 43.541 156.827 43.5465 156.622ZM43.858 147.792C43.8626 147.691 43.8469 147.589 43.8118 147.493C43.7766 147.397 43.7227 147.309 43.6532 147.234C43.5836 147.159 43.4999 147.099 43.4067 147.056C43.3135 147.014 43.2128 146.99 43.1103 146.987C43.0085 146.982 42.9067 146.997 42.8108 147.032C42.715 147.066 42.6269 147.12 42.5517 147.188C42.4764 147.256 42.4155 147.339 42.3724 147.431C42.3292 147.523 42.3047 147.622 42.3003 147.724C42.2909 147.929 42.3635 148.13 42.5023 148.282C42.6411 148.434 42.8347 148.526 43.0411 148.536C43.1438 148.541 43.2465 148.525 43.3432 148.49C43.4399 148.456 43.5287 148.402 43.6046 148.333C43.6805 148.264 43.7419 148.181 43.7854 148.088C43.8289 147.995 43.8536 147.895 43.858 147.792ZM44.3426 138.97C44.3563 138.77 44.2918 138.574 44.1627 138.421C44.0335 138.268 43.8499 138.171 43.6503 138.15C43.4493 138.136 43.2508 138.2 43.096 138.328C42.9413 138.457 42.8422 138.64 42.8195 138.839C42.8059 139.038 42.8704 139.235 42.9995 139.387C43.1286 139.54 43.3123 139.637 43.5118 139.658H43.5603C43.7535 139.661 43.9408 139.592 44.0856 139.465C44.2303 139.337 44.3219 139.161 44.3426 138.97ZM44.9796 130.154C44.997 129.952 44.9342 129.752 44.8047 129.596C44.6752 129.44 44.4894 129.341 44.2872 129.32C44.084 129.303 43.8819 129.365 43.7241 129.494C43.5664 129.622 43.4653 129.807 43.4426 130.009C43.4287 130.21 43.4928 130.408 43.6216 130.563C43.7505 130.718 43.9342 130.818 44.1349 130.842H44.1972C44.3869 130.844 44.5708 130.777 44.7147 130.655C44.8586 130.532 44.9527 130.361 44.9796 130.174V130.154ZM45.7688 121.344C45.7881 121.142 45.7262 120.94 45.5966 120.782C45.4669 120.625 45.28 120.525 45.0765 120.504C44.8728 120.485 44.6698 120.546 44.5116 120.675C44.3534 120.804 44.2529 120.99 44.2319 121.193C44.2124 121.396 44.2741 121.599 44.4036 121.757C44.5332 121.916 44.7201 122.017 44.9242 122.04H45.0003C45.1922 122.039 45.377 121.968 45.519 121.839C45.6609 121.711 45.7499 121.534 45.7688 121.344ZM46.6411 112.549C46.6526 112.448 46.6438 112.345 46.6151 112.247C46.5865 112.149 46.5386 112.058 46.4742 111.978C46.4098 111.899 46.3302 111.833 46.24 111.784C46.1498 111.736 46.0508 111.705 45.9488 111.695C45.8472 111.684 45.7444 111.692 45.6464 111.721C45.5483 111.75 45.4569 111.797 45.3776 111.861C45.2983 111.926 45.2327 112.005 45.1846 112.094C45.1364 112.184 45.1067 112.282 45.0972 112.384C45.0857 112.485 45.0946 112.588 45.1232 112.686C45.1519 112.784 45.1998 112.875 45.2642 112.955C45.3286 113.034 45.4082 113.1 45.4983 113.149C45.5885 113.197 45.6875 113.227 45.7896 113.238H45.8726C46.0587 113.231 46.2359 113.157 46.3719 113.031C46.5079 112.904 46.5936 112.733 46.6134 112.549H46.6411ZM47.6242 103.754C47.6357 103.652 47.6269 103.55 47.5982 103.452C47.5696 103.354 47.5217 103.262 47.4573 103.183C47.3929 103.103 47.3133 103.037 47.2231 102.989C47.1329 102.94 47.0339 102.91 46.9319 102.9C46.8294 102.887 46.7255 102.895 46.6262 102.923C46.5269 102.951 46.4342 102.999 46.3536 103.063C46.273 103.127 46.2061 103.207 46.1568 103.297C46.1075 103.387 46.0768 103.486 46.0665 103.588C46.0549 103.69 46.0637 103.793 46.0923 103.892C46.1209 103.99 46.1687 104.082 46.233 104.162C46.2973 104.242 46.3769 104.308 46.4671 104.358C46.5573 104.407 46.6565 104.438 46.7588 104.449H46.8488C47.0366 104.442 47.2156 104.368 47.3529 104.24C47.4902 104.112 47.5767 103.94 47.5965 103.754H47.6242ZM48.6904 94.972C48.7029 94.8701 48.6948 94.7667 48.6666 94.6679C48.6384 94.5691 48.5906 94.4769 48.5261 94.3968C48.4617 94.3166 48.3817 94.25 48.2911 94.2009C48.2004 94.1519 48.1007 94.1213 47.998 94.1111C47.895 94.0977 47.7904 94.105 47.6903 94.1326C47.5902 94.1602 47.4967 94.2075 47.4153 94.2717C47.3339 94.336 47.2664 94.4158 47.2166 94.5066C47.1669 94.5973 47.136 94.697 47.1257 94.7999C47.1132 94.9022 47.1212 95.0059 47.1494 95.1051C47.1775 95.2043 47.2251 95.297 47.2895 95.3778C47.3539 95.4585 47.4338 95.5257 47.5245 95.5755C47.6153 95.6252 47.715 95.6566 47.818 95.6677H47.9219C48.109 95.6602 48.287 95.5857 48.4232 95.4579C48.5594 95.33 48.6444 95.1574 48.6627 94.972H48.6904ZM49.8465 86.2042C49.861 86.1012 49.8544 85.9964 49.8272 85.896C49.7999 85.7956 49.7525 85.7017 49.6878 85.62C49.6232 85.5383 49.5425 85.4705 49.4508 85.4205C49.3591 85.3706 49.2582 85.3396 49.1542 85.3295C49.0512 85.3161 48.9466 85.3234 48.8464 85.351C48.7463 85.3786 48.6528 85.4259 48.5715 85.4901C48.4901 85.5544 48.4225 85.6342 48.3728 85.725C48.3231 85.8157 48.2921 85.9154 48.2819 86.0183C48.2674 86.1209 48.274 86.2253 48.3014 86.3253C48.3287 86.4253 48.3762 86.5187 48.4409 86.5999C48.5057 86.6811 48.5864 86.7483 48.678 86.7975C48.7697 86.8467 48.8705 86.8768 48.9742 86.8861H49.078C49.263 86.8791 49.4393 86.8065 49.5752 86.6815C49.7111 86.5564 49.7975 86.3871 49.8188 86.2042H49.8465ZM51.0927 77.4433C51.1072 77.3399 51.1007 77.2347 51.0735 77.1339C51.0463 77.0331 50.999 76.9387 50.9344 76.8565C50.8698 76.7742 50.7892 76.7058 50.6975 76.6551C50.6057 76.6045 50.5047 76.5727 50.4004 76.5617C50.2965 76.5473 50.1907 76.5538 50.0894 76.5808C49.988 76.6079 49.8932 76.6549 49.8105 76.7192C49.7279 76.7834 49.659 76.8636 49.6081 76.9549C49.5572 77.0461 49.5253 77.1467 49.5142 77.2504C49.4997 77.3538 49.5062 77.459 49.5334 77.5598C49.5606 77.6607 49.6079 77.755 49.6725 77.8372C49.7371 77.9195 49.8177 77.988 49.9094 78.0386C50.0011 78.0893 50.1022 78.121 50.2065 78.132H50.3242C50.5102 78.1248 50.6874 78.0513 50.8234 77.9248C50.9594 77.7984 51.0452 77.6274 51.065 77.4433H51.0927ZM52.4219 68.6961C52.4519 68.4928 52.4006 68.2858 52.2789 68.1197C52.1572 67.9536 51.9749 67.8415 51.7711 67.8076C51.5667 67.7778 51.3587 67.8289 51.1917 67.9499C51.0247 68.071 50.9121 68.2523 50.8781 68.4551C50.8481 68.6584 50.8994 68.8654 51.0211 69.0315C51.1428 69.1977 51.3251 69.3097 51.5288 69.3436H51.6535C51.8329 69.3366 52.0044 69.2685 52.1393 69.1506C52.2742 69.0327 52.3642 68.8722 52.3942 68.6961H52.4219Z" fill="#C9DAF4"/>
<path d="M42.6672 166.175C42.7178 166.182 42.769 166.182 42.8195 166.175C42.8696 166.168 42.9185 166.154 42.9649 166.134C43.011 166.113 43.0551 166.087 43.0965 166.058C43.1425 166.032 43.1845 166 43.2211 165.962C43.2567 165.926 43.2892 165.886 43.318 165.845C43.3452 165.803 43.3684 165.759 43.3872 165.714C43.4074 165.668 43.4214 165.619 43.4288 165.569C43.4472 165.469 43.4472 165.366 43.4288 165.266C43.4214 165.216 43.4074 165.168 43.3872 165.121C43.367 165.074 43.3438 165.028 43.318 164.984L43.2211 164.867C43.1826 164.831 43.1409 164.798 43.0965 164.77L42.9649 164.701C42.9185 164.681 42.8696 164.667 42.8195 164.66C42.7191 164.639 42.6154 164.639 42.5149 164.66C42.4649 164.667 42.416 164.681 42.3695 164.701L42.238 164.77C42.1936 164.798 42.1519 164.831 42.1134 164.867L42.0165 164.984L41.9472 165.121C41.873 165.312 41.873 165.523 41.9472 165.714C41.9661 165.759 41.9893 165.803 42.0165 165.845C42.0453 165.886 42.0777 165.926 42.1134 165.962C42.15 166 42.192 166.032 42.238 166.058C42.2794 166.087 42.3234 166.113 42.3695 166.134C42.416 166.154 42.4649 166.168 42.5149 166.175C42.5655 166.182 42.6167 166.182 42.6672 166.175Z" fill="#C9DAF4"/>
<path d="M39.8218 166.34C39.9351 166.341 40.044 166.297 40.1254 166.218C40.2068 166.14 40.2543 166.033 40.2579 165.92C41.8503 108.644 51.688 56.822 51.7919 56.3055C51.8102 56.247 51.8159 56.1853 51.8085 56.1244C51.8012 56.0636 51.7809 56.005 51.7492 55.9525C51.7174 55.9 51.6748 55.8548 51.6242 55.8199C51.5737 55.7849 51.5162 55.761 51.4557 55.7498C51.3951 55.7385 51.3329 55.7401 51.273 55.7545C51.2131 55.7689 51.157 55.7958 51.1083 55.8333C51.0596 55.8708 51.0195 55.9182 50.9905 55.9723C50.9616 56.0264 50.9445 56.0859 50.9403 56.1471C50.8434 56.6636 40.9918 108.547 39.3926 165.9C39.3907 166.014 39.4339 166.124 39.5129 166.206C39.5919 166.289 39.7004 166.337 39.8149 166.34H39.8218Z" fill="#C9DAF4"/>
<path d="M82.2328 123.721C81.9474 124.268 81.6064 124.785 81.2151 125.263C81.1389 125.36 81.0559 125.449 80.9728 125.539C80.3591 126.229 79.6058 126.782 78.7623 127.161C77.9187 127.541 77.004 127.739 76.0781 127.743C75.7683 127.75 75.4584 127.736 75.1504 127.702C73.8971 127.548 72.7319 126.98 71.8412 126.09C68.1719 122.536 68.1165 114.539 68.1165 114.202C68.1163 114.115 68.1489 114.032 68.208 113.968C68.267 113.904 68.3481 113.865 68.435 113.858L79.2489 112.776L80.2251 112.68C80.2666 112.907 80.3082 113.134 80.3428 113.369L79.3597 113.465L68.8227 114.519C68.8227 114.849 68.8642 115.428 68.9335 116.151C68.9335 116.372 68.975 116.599 69.0027 116.84C69.3142 119.485 70.1381 123.459 72.3258 125.58C72.8128 126.067 73.3957 126.448 74.038 126.699C74.6802 126.95 75.3678 127.066 76.0574 127.04C76.8883 127.039 77.7094 126.862 78.467 126.523C79.2246 126.183 79.9016 125.688 80.4535 125.071C80.6724 124.822 80.878 124.562 81.0697 124.292C81.4419 123.74 81.7573 123.151 82.0112 122.536C82.0874 122.935 82.1636 123.328 82.2328 123.721Z" fill="#C9DAF4"/>
<path d="M80.6405 115.022L80.7651 115.71L79.7405 115.807L69.0028 116.833H68.6497H68.5735C68.4934 116.823 68.4191 116.786 68.3626 116.728C68.3061 116.671 68.2706 116.596 68.262 116.516C68.2543 116.424 68.2834 116.333 68.343 116.262C68.4026 116.191 68.4879 116.146 68.5804 116.137L68.9335 116.103L79.6297 115.084L80.6405 115.022Z" fill="#C9DAF4"/>
<path d="M70.1451 31.7928C70.1451 31.7928 73.4613 32.5642 74.1536 34.2654L71.5989 44.0802L66.9674 44.5485C67.0435 44.762 68.262 47.6892 68.262 47.6892L60.3073 57.8552C57.6765 58.1582 55.8488 58.6404 53.6611 58.8194C55.0527 54.7558 65.7835 41.0565 70.1451 31.7928Z" fill="#C9DAF4"/>
<path d="M57.6558 33.7075C57.6558 33.7075 54.6788 33.5147 52.9134 35.2848L49.6042 42.4202L50.8019 44.5623L48.5588 45.251C48.5588 45.251 47.5272 52.4485 48.2195 55.8991L53.6404 58.7988C52.2973 49.845 53.8134 42.131 57.6558 35.4707V33.7075Z" fill="#C9DAF4"/>
<path d="M91.7521 80.033C91.7521 80.033 90.8798 82.2095 92.2852 86.7966C93.0512 89.4199 94.2187 91.9102 95.7467 94.18C95.7467 94.18 100.15 86.6795 91.7521 80.033Z" fill="#C9DAF4"/>
<path d="M112.618 74.4197C112.618 74.6539 112.618 74.888 112.618 75.1084L112.556 75.7972C112.556 75.9074 112.556 76.0245 112.508 76.1347L112.452 76.4722C112.295 77.3084 112.049 78.1257 111.718 78.9103C111.566 79.2633 111.395 79.6081 111.206 79.9435C111.116 80.1088 111.026 80.2741 110.936 80.4256L110.652 80.8733C109.963 81.9052 109.152 82.851 108.236 83.6903C107.47 84.3991 106.659 85.0572 105.806 85.6601C105.405 85.9563 105.003 86.218 104.601 86.4797C104.2 86.7414 103.812 86.9825 103.418 87.2236C102.628 87.685 101.846 88.1258 101.071 88.5322C99.506 89.3518 97.9552 90.0543 96.4045 90.7018C94.8537 91.3492 93.3029 91.9346 91.7521 92.4719C90.2013 93.0091 88.6506 93.5325 87.0998 94.0078C85.549 94.483 83.9774 94.9169 82.4128 95.3371C81.6937 95.5046 80.9656 95.631 80.232 95.7159C78.9651 95.8812 77.6013 96.0258 76.7082 96.2256C76.4174 94.9376 77.4628 93.8287 77.172 92.5407C76.8328 91.0324 76.4797 89.524 76.1266 88.0156L76.6874 86.6381C77.6289 86.3557 78.5843 86.0527 79.5259 85.7428H79.6159C81.0005 85.2836 82.369 84.7923 83.7213 84.2688C85.1059 83.7385 86.4905 83.1806 87.8059 82.5883C89.1213 81.9959 90.4575 81.3761 91.7244 80.7217C92.9914 80.0674 94.2167 79.3442 95.3521 78.6555C95.9198 78.2905 96.4737 77.9254 96.9791 77.5397C97.2283 77.3538 97.4775 77.1609 97.7129 76.9681C97.9483 76.7752 98.1629 76.5824 98.3706 76.3895C98.6699 76.1151 98.9498 75.8206 99.2083 75.5079L99.3952 75.2668L99.1529 74.9707L98.7168 74.4403C98.4883 74.1648 98.2668 73.8893 98.0245 73.6138C97.5398 73.0559 97.0691 72.4981 96.5775 71.9402L95.096 70.2527C94.0852 69.1369 93.0883 68.0143 92.0498 66.8985L91.2813 66.0651L90.506 65.2248L89.3844 64.054L88.9206 63.5581L88.3529 62.952L87.3559 61.8844L85.7775 60.2176C84.7251 59.1018 83.6705 57.9906 82.6136 56.884L76.2789 50.2445L76.2374 50.2032C74.9411 48.8633 74.2329 47.066 74.2686 45.2066C74.3043 43.3473 75.081 41.5782 76.4278 40.2886C77.7746 38.9989 79.5812 38.2944 81.4501 38.3299C83.3191 38.3654 85.0973 39.1381 86.3936 40.478L88.0482 42.1723L89.6821 43.8666C90.2221 44.4314 90.7621 44.9962 91.2952 45.5679C91.8283 46.1395 92.3752 46.7043 92.9083 47.2828C93.9744 48.4262 95.0337 49.5833 96.0929 50.7266L97.6922 52.4829L97.9068 52.724L99.2914 54.2461C99.8176 54.8316 100.337 55.4239 100.856 56.0162L101.631 56.9116L101.978 57.318L102.407 57.8139C103.438 59.0054 104.484 60.2245 105.481 61.4505L106.997 63.317C107.502 63.9506 108.001 64.5981 108.506 65.2386C108.755 65.5485 109.011 65.886 109.261 66.2235L109.953 67.2222L110.154 67.4977V67.5322V67.5872L110.313 67.8076L110.618 68.2622L110.846 68.5377L110.991 68.7926C111.088 68.9579 111.185 69.1232 111.282 69.3022C111.379 69.4813 111.462 69.6673 111.545 69.8532L111.677 70.1356C111.718 70.2321 111.76 70.3285 111.795 70.4318C111.829 70.5351 111.954 70.8313 112.023 71.0379C112.092 71.2445 112.155 71.4649 112.217 71.6784C112.279 71.892 112.335 72.1124 112.376 72.3672C112.418 72.622 112.459 72.8218 112.494 73.0559C112.528 73.2901 112.549 73.5174 112.57 73.7447V74.096C112.618 74.1855 112.618 74.3026 112.618 74.4197Z" fill="#A54B4A"/>
<path d="M82.4614 84.7165C82.779 84.3844 83.1665 84.1263 83.5962 83.9608C84.0259 83.7952 84.4871 83.7264 84.9468 83.7592C84.9468 83.7592 88.5606 89.1452 87.1206 94.0147C86.4603 94.5382 85.621 94.7853 84.7806 94.7034C84.7806 94.7034 86.0268 88.849 82.4614 84.7165Z" fill="black"/>
<path d="M89.1145 89.221C89.1159 89.8792 88.9209 90.5231 88.5543 91.071C88.1877 91.619 87.666 92.0465 87.0551 92.2993C86.4442 92.5522 85.7716 92.619 85.1225 92.4914C84.4734 92.3639 83.877 92.0476 83.4086 91.5826C82.9403 91.1176 82.6211 90.5249 82.4915 89.8794C82.3619 89.2339 82.4278 88.5647 82.6806 87.9564C82.9335 87.3481 83.3621 86.8282 83.9122 86.4623C84.4622 86.0965 85.109 85.9012 85.7706 85.9012C86.6563 85.9012 87.5058 86.2507 88.1327 86.8731C88.7596 87.4955 89.1127 88.3399 89.1145 89.221Z" fill="black"/>
<path d="M85.7705 91.7073C85.2762 91.7073 84.793 91.5615 84.382 91.2883C83.971 91.0151 83.6507 90.6268 83.4615 90.1725C83.2724 89.7181 83.2229 89.2182 83.3193 88.7359C83.4157 88.2536 83.6538 87.8105 84.0033 87.4628C84.3528 87.1151 84.7981 86.8783 85.2829 86.7823C85.7678 86.6864 86.2703 86.7356 86.7269 86.9238C87.1836 87.112 87.574 87.4307 87.8486 87.8396C88.1232 88.2485 88.2698 88.7292 88.2698 89.2209C88.2698 89.8804 88.0065 90.5128 87.5378 90.9791C87.0691 91.4454 86.4334 91.7073 85.7705 91.7073Z" fill="white"/>
<path d="M80.2251 95.5575C78.9582 95.7228 77.5943 95.8674 76.7012 96.0671C76.4105 94.7792 77.4559 93.6703 77.1651 92.3823C76.8259 90.874 76.4728 89.3656 76.1197 87.8572L76.6805 86.4797C77.622 86.1973 78.5774 85.8943 79.5189 85.5844H79.6089C80.1213 87.685 80.9866 92.1826 80.2251 95.5575Z" fill="#6B2131"/>
<path d="M74.202 43.8666C73.9302 44.9575 73.9427 46.0993 74.2383 47.184C74.5339 48.2687 75.1028 49.2605 75.8912 50.0654C78.882 53.1235 84.6005 59.0605 87.7921 62.8142C92.2575 68.0487 97.8999 74.6194 97.8999 74.6194C95.9489 76.5315 93.8967 78.3386 91.7521 80.033C93.7731 81.7164 95.2373 83.9666 95.9536 86.4902C96.6698 89.0138 96.605 91.6936 95.7675 94.18C95.7675 94.18 107.066 87.1547 112.618 80.7011C116.675 75.99 115.166 70.48 110.936 65.3626C108.769 62.7798 92.4998 46.2635 86.7121 40.4917C85.6752 39.4384 84.3488 38.7131 82.8992 38.4068C81.4496 38.1005 79.9413 38.2268 78.5636 38.7699C77.4704 39.1957 76.5001 39.8838 75.7392 40.7731C74.9782 41.6624 74.4501 42.7251 74.202 43.8666Z" fill="white"/>
<path d="M79.4844 87.2029C79.4844 87.2029 78.8751 84.5788 78.0444 82.0648C77.3521 79.9986 76.1474 79.3787 76.1474 79.3787C75.84 81.0247 75.7124 82.6989 75.7667 84.3721C75.5013 84.1891 75.1967 84.0701 74.877 84.0247C74.5573 83.9793 74.2314 84.0086 73.9251 84.1104C72.762 84.4135 68.7466 85.4879 68.7466 86.4315C68.7466 88.5735 73.7797 87.2787 73.7797 87.2787C73.7797 87.2787 68.3935 88.6011 68.6151 90.0888C68.7951 91.2872 73.7382 91.2459 73.7382 91.2459C73.7382 91.2459 68.9889 91.5558 69.6535 93.2157C70.3459 94.9858 74.7074 93.6083 74.7074 93.6083C74.7074 93.6083 71.6128 95.3026 71.9382 95.9225C72.4297 96.811 74.3266 96.9625 77.3313 96.0603C80.3359 95.158 79.4844 87.2029 79.4844 87.2029Z" fill="#A54B4A"/>
<path d="M83.5414 59.1294C83.6004 59.1366 83.6604 59.1305 83.7167 59.1114C83.7731 59.0923 83.8244 59.0608 83.8667 59.0192C83.9065 58.9807 83.9381 58.9346 83.9597 58.8838C83.9813 58.8329 83.9924 58.7782 83.9924 58.723C83.9924 58.6678 83.9813 58.6131 83.9597 58.5623C83.9381 58.5114 83.9065 58.4654 83.8667 58.4269L76.3552 50.5062C76.3164 50.4666 76.2702 50.4352 76.219 50.4137C76.1679 50.3922 76.113 50.3812 76.0575 50.3812C76.002 50.3812 75.947 50.3922 75.8959 50.4137C75.8448 50.4352 75.7985 50.4666 75.7598 50.5062C75.6811 50.5849 75.637 50.6914 75.637 50.8024C75.637 50.9133 75.6811 51.0198 75.7598 51.0985L83.2714 59.0054C83.3425 59.079 83.4389 59.1233 83.5414 59.1294Z" fill="#C9DAF4"/>
<path d="M75.5382 53.3989L78.2244 53.6538C78.3304 53.6556 78.4332 53.6177 78.5124 53.5475C78.5916 53.4774 78.6414 53.3801 78.6519 53.2752C78.6623 53.1702 78.6327 53.0651 78.5689 52.9809C78.5051 52.8966 78.4117 52.8393 78.3074 52.8204L75.6282 52.5656C75.5171 52.554 75.406 52.5866 75.3191 52.6563C75.2322 52.726 75.1765 52.8271 75.1643 52.9375C75.1545 53.0476 75.188 53.1572 75.2577 53.2432C75.3274 53.3293 75.4279 53.3851 75.5382 53.3989Z" fill="#C9DAF4"/>
<path d="M105.543 76.0038C105.507 76.0615 105.45 76.1033 105.384 76.1209C105.307 76.1351 105.228 76.1204 105.162 76.0796C103.085 74.7021 99.4922 74.7503 97.7268 74.8674C97.7934 74.7904 97.8558 74.7099 97.9137 74.6263L97.6714 74.3301H98.1906C99.2429 73.2075 102.165 72.0159 102.289 71.9677C102.322 71.9542 102.358 71.9472 102.394 71.9473C102.43 71.9474 102.465 71.9546 102.498 71.9683C102.531 71.9821 102.561 72.0022 102.587 72.0275C102.612 72.0528 102.632 72.0828 102.646 72.1158C102.659 72.1488 102.666 72.1842 102.666 72.2199C102.666 72.2556 102.659 72.2909 102.645 72.3238C102.631 72.3568 102.611 72.3867 102.586 72.4118C102.56 72.437 102.53 72.457 102.497 72.4705C101.284 72.9647 100.125 73.5784 99.0353 74.3026C100.988 74.3026 103.674 74.5023 105.446 75.6801C105.496 75.7157 105.533 75.7668 105.55 75.8254C105.568 75.8841 105.565 75.9468 105.543 76.0038Z" fill="#C9DAF4"/>
<path d="M66.3235 10.3313C66.3235 10.3313 69.0304 14.4638 67.1889 18.2382C66.0823 20.54 65.6895 23.1175 66.0604 25.6422C66.0604 25.6422 66.822 21.5097 68.6012 19.8292C70.5535 17.9902 71.9174 15.9859 70.9966 12.8728C70.0758 9.75962 67.535 8.68517 66.3235 10.3313Z" fill="black"/>
<path d="M56.9773 6.0128C56.9773 6.0128 57.815 12.0945 64.1151 13.1483C70.4151 14.2021 71.0382 10.3519 71.0382 10.3519C71.0382 10.3519 65.5205 0.117085 56.9773 6.0128Z" fill="black"/>
</g>
<defs>
<clipPath id="clip0_39_133">
<rect width="115" height="263" fill="white" transform="matrix(-1 0 0 1 115 0)"/>
</clipPath>
</defs>
</svg>
